<svg width="74" height="131" viewBox="0 0 74 131" fill="none" xmlns="http://www.w3.org/2000/svg">
<path d="M40.7179 2.02744C41.0425 2.35403 41.4754 1.86414 41.7459 2.02744C42.1788 1.86414 42.5576 1.53755 43.0445 1.53755C43.5315 1.31982 44.289 1.31982 44.8301 1.31982L44.9383 1.21096L45.0466 1.31982L45.1548 1.21096L45.263 1.31982L45.3712 1.21096L45.4794 1.31982L45.5876 1.21096C45.5876 1.21096 45.9123 1.15653 45.9664 1.31982L46.0746 1.21096L46.1828 1.31982L46.291 1.21096C46.6698 1.53755 47.1568 1.42869 47.6438 1.53755C47.9684 1.75528 48.4554 1.97301 48.78 1.91857C50.1327 3.06164 51.2149 4.20471 51.8642 5.67437C51.9724 6.00096 52.1348 6.38198 52.0807 6.70857C52.3512 7.36175 52.0807 7.90607 52.1889 8.50482C52.3512 9.64789 51.4314 10.5732 51.4855 11.6619C52.1348 11.2808 52.6217 10.8998 53.0005 10.4644L52.8923 10.3555C53.271 9.70232 53.0005 9.10357 53.3793 8.45039C53.4875 7.79721 53.2169 7.25289 53.271 6.65414C53.1087 6.59971 53.1628 6.43641 53.1628 6.32755C52.3512 3.71482 50.6197 1.26539 47.6979 0.612212C47.1027 0.340053 46.291 0.23119 45.6417 0.285621C45.5335 0.285621 45.3712 0.285621 45.3712 0.176758L45.263 0.285621L45.1548 0.176758L45.0466 0.285621C45.0466 0.285621 44.8842 0.23119 44.8301 0.176758L44.7219 0.285621L44.6137 0.176758L44.5055 0.285621C42.8281 0.285621 41.5295 0.993234 39.9062 1.26539V1.59198C39.9604 1.97301 40.4473 1.97301 40.7179 2.08187V2.02744Z" fill="#FDF4E7"/>
<path d="M24.4853 4.25914C24.7559 3.66039 25.5134 3.82369 25.8921 3.22494L26.0004 3.3338C27.1366 2.73505 28.3811 1.80971 29.788 1.70085C30.1667 1.53755 30.7078 1.70085 31.0324 1.64642L31.1407 1.53755C31.1407 1.53755 31.303 1.53755 31.3571 1.64642C31.6276 1.42869 32.1146 1.59198 32.2769 1.53755L32.3852 1.64642C34.1707 1.42869 35.6858 3.4971 36.6056 4.85789C36.8762 5.40221 36.8221 6.21868 37.4172 6.43641C37.7419 6.70857 38.1207 6.43641 38.3371 6.21868C38.6076 5.67437 38.1748 5.13005 38.0124 4.69459C37.5796 2.73505 35.8481 1.97301 34.3331 0.775507C33.792 0.721075 33.1968 0.340053 32.7098 0.448917C32.0605 0.285621 31.2489 0.340053 30.6537 0.340053L30.5455 0.448917C29.0304 0.448917 27.1907 1.15653 25.838 1.97301C25.0264 2.51732 23.5114 3.00721 23.349 4.09585C23.5114 4.85789 24.1066 3.87812 24.4853 4.20471V4.25914Z" fill="#FDF4E7"/>
<path d="M17.5053 4.42244C17.5053 4.42244 17.5053 4.15028 17.6135 4.15028C17.343 3.82369 17.0725 3.82369 16.8019 4.15028C16.8019 4.47687 17.2348 4.42244 17.5053 4.42244Z" fill="#FDF4E7"/>
<path d="M40.285 5.94653C40.6638 6.21868 41.0425 5.5655 41.4213 5.83766L41.5295 5.7288C41.5295 5.7288 41.8 5.7288 41.8541 5.83766H42.8822C43.8562 6.10982 45.1007 6.43641 45.4253 7.52505C45.75 7.9605 46.0746 8.61368 46.0746 9.04913C46.2369 9.48459 46.5075 10.0289 46.291 10.5732L46.5075 10.791L46.3993 10.8998C46.3993 10.8998 46.3993 11.0631 46.5075 11.1175L46.3993 11.2264L46.5075 11.3353L46.3993 11.4441C46.3993 11.4441 46.6157 11.7163 46.778 11.6619C46.9945 11.3353 46.778 10.8454 46.9945 10.5188C46.8321 10.1378 47.3732 9.32129 46.778 8.9947L46.8862 8.88584L46.778 8.77698H46.8862C46.8862 8.77698 46.8862 8.39595 46.9945 8.28709C46.6698 7.74277 46.4534 6.87186 45.9664 6.38198C45.6417 6.10982 45.263 5.61993 44.8301 5.34778C44.5055 5.23891 44.1808 4.74903 43.9103 4.91232C43.8562 4.91232 43.8021 4.85789 43.8021 4.69459C42.4493 4.20471 40.5555 4.20471 39.3652 5.13005C39.6898 5.45664 39.7439 6.05539 40.285 5.94653Z" fill="#FDF4E7"/>
<path d="M15.1246 9.59345C16.2608 9.75675 16.1526 8.45039 16.5855 7.90607C17.1807 7.79721 17.2889 6.98073 17.8841 7.30732C18.0464 6.763 18.858 7.08959 18.9121 6.49084C18.3711 6.00096 17.6677 6.54527 17.1807 6.38198C16.856 6.59971 16.3149 6.38198 15.9362 6.59971C14.854 6.98073 14.7999 8.17823 14.2588 8.9947C14.4753 9.26686 14.6376 9.75675 15.0704 9.59345H15.1246Z" fill="#FDF4E7"/>
<path d="M25.6216 7.08959C25.4593 6.81743 25.3511 6.59971 25.0264 6.59971C24.6476 6.87187 23.836 6.81743 23.8901 7.41618C24.323 7.74277 25.0805 7.63391 25.5675 7.52505C25.5675 7.41618 25.4593 7.19846 25.6757 7.14402L25.6216 7.08959Z" fill="#FDF4E7"/>
<path d="M18.1546 15.3088L18.0464 15.4177L18.1546 15.5265C18.0464 16.5063 18.2628 17.0506 18.3711 17.9759C18.2628 18.357 18.6957 18.9557 18.6957 19.2823C19.345 20.1532 19.8861 21.2419 20.6436 21.895C21.2929 21.895 21.2929 22.6571 21.9963 22.4938L21.8881 22.3849C21.8881 22.3849 21.6717 21.8406 21.7799 21.6773L21.6717 21.7862C20.8601 20.8608 20.3731 19.8266 19.832 18.738C19.832 18.1392 19.4532 17.1595 19.5073 16.6152C19.5073 16.5063 19.5073 16.343 19.3991 16.2886L19.5073 16.1797C19.2368 15.962 19.7238 15.6898 19.3991 15.4721L19.5073 15.3632C19.5073 15.3632 19.5073 14.6556 19.3991 14.4379C19.7238 14.2202 19.5615 13.7303 19.6156 13.567C20.1025 12.5328 20.5895 11.3897 21.5635 10.6821L21.8881 10.3555C21.9422 9.81118 22.5915 9.43016 22.5374 8.94027L22.6456 8.83141L22.5374 8.72255C22.5374 8.72255 22.5915 8.45039 22.6456 8.34152C22.4292 8.34152 22.321 8.01493 22.0504 8.1238C19.8861 9.92004 18.317 12.1517 18.1546 15.1455L18.2628 15.2544L18.1546 15.3088Z" fill="#FDF4E7"/>
<path d="M43.8021 15.7987C43.3151 14.0024 42.287 11.8252 40.3932 10.7365C39.7439 10.2466 38.77 10.0833 38.0124 9.64789L37.9042 9.75675L37.6878 9.43016L37.5796 9.53902C37.2008 9.43016 36.7138 9.32129 36.4433 9.32129L36.3351 9.21243C35.6317 9.158 35.2529 8.94027 34.6036 8.9947L34.4954 8.88584L34.3872 8.9947L34.279 8.88584L34.1707 8.9947C34.1707 8.9947 34.0084 8.94027 33.9543 8.88584L33.8461 8.9947L33.7379 8.88584L33.6297 9.10357C32.7639 9.10357 31.79 9.43016 30.8701 9.59345C30.7619 10.1378 30.1126 9.97448 29.7338 10.3011C29.2469 10.6277 28.5976 10.8998 28.3811 11.4986C28.9763 11.934 29.6797 11.553 30.2208 11.3897C30.8701 10.5732 31.9523 10.6277 32.7639 10.1922H33.5755L33.6838 10.0833H34.9283L35.0365 9.97448C36.9303 10.5188 38.9864 10.6821 40.5014 12.2062C41.0425 12.4239 40.6097 12.9138 41.2048 13.0227L41.0966 13.1315C41.3131 13.6758 41.8541 14.1657 42.1247 14.71L42.0165 14.8189C42.2329 15.3088 42.5576 15.9075 42.3952 16.3974L42.5034 16.5063L42.3952 16.6152C42.3952 16.6152 42.3952 16.8873 42.5034 16.8873L42.3952 16.9962C42.3952 16.9962 42.3952 17.2683 42.5034 17.3228L42.3952 17.4316L43.3151 17.5405C43.5315 17.1595 43.7479 16.724 43.5315 16.343C43.8562 16.1253 43.3151 15.9075 43.6397 15.7442L43.8021 15.7987Z" fill="#FDF4E7"/>
<path d="M26.8661 12.4239C26.3791 12.4239 25.9463 12.7505 26.0545 13.2948C26.2709 13.4581 26.6497 13.8936 26.9743 13.7303L27.0825 13.8391C27.4072 13.6214 27.6236 13.2948 27.8942 12.9682L27.7859 12.8594L27.8942 12.7505C27.6777 12.2606 27.1907 12.4783 26.8661 12.4239Z" fill="#FDF4E7"/>
<path d="M12.9061 18.738C13.0684 19.0646 13.0143 19.9355 13.0143 20.3165L13.1225 20.4254C13.1225 20.4254 13.1225 20.6431 13.0143 20.752L13.2308 20.9697C13.2308 20.9697 13.5554 21.3507 13.2308 21.5684C13.1225 21.9495 13.7718 22.1672 13.5554 22.4938C13.9883 23.909 15.0704 25.0521 15.828 26.304L15.7197 26.4129C16.2608 26.8483 16.7478 27.6104 17.2889 28.0458C17.4512 28.3724 17.7218 28.8079 17.6135 29.1345L17.7218 29.2433C17.7218 29.2433 17.7218 29.5155 17.6135 29.5699L17.7218 29.6788C17.7218 29.6788 17.6677 29.8421 17.6135 29.8965L17.7218 30.0054L17.6135 30.1142C17.6135 30.1142 17.3971 30.713 17.83 30.9307C17.8841 30.8763 17.9382 30.7674 18.0464 30.8218C18.9663 29.7332 18.5875 28.2635 17.9382 27.1749C16.6396 25.9774 15.8821 24.3989 15.1787 22.8748C15.1787 22.5482 14.7458 22.2761 14.854 22.0583C14.854 21.6229 14.4211 21.0241 14.4211 20.5342L14.3129 20.4254C14.3129 20.4254 14.2047 19.9355 14.3129 19.8266L14.2047 19.7178L14.3129 19.6089L14.2047 19.5L14.3129 19.3912C14.3129 19.3912 13.9342 19.0646 14.2047 18.9013L14.0965 18.7924L14.2047 18.6836V16.9962C14.2047 16.9962 14.5294 16.6696 14.3129 16.5607C14.3129 16.4519 14.367 16.3974 14.4211 16.343L14.3129 16.2341C14.4753 15.6898 15.0704 15.3632 15.5574 15.1999C15.6115 15.0366 15.7739 14.8189 15.5574 14.71C15.7739 14.6012 15.5574 14.4379 15.5574 14.2746C15.0704 13.948 14.6917 14.0024 14.2047 13.948H14.0965C14.0965 13.948 13.7177 14.329 13.7718 14.7645C13.4472 15.3632 13.1225 16.0708 13.2308 16.6696C12.852 17.1595 13.0684 17.5949 13.0143 18.0848C12.6897 18.3025 13.2308 18.4658 12.9061 18.6836V18.738Z" fill="#FDF4E7"/>
<path d="M53.1087 16.4519C52.4594 16.2886 51.756 15.7442 51.0526 15.962C50.9444 15.962 50.7279 16.0164 50.6738 15.8531L50.5656 15.962C50.241 15.962 49.5917 15.962 49.1588 16.0164C48.8883 16.1253 48.5095 16.2886 48.3472 16.2341C47.3732 16.7784 46.1287 17.1595 45.1548 17.8126L45.5876 18.3025L45.4794 18.4114L45.5876 18.5203C47.265 18.9557 47.9684 17.0506 49.5917 16.9962C49.9163 17.1595 50.4574 16.9417 50.7279 16.9962C51.1608 16.724 51.6478 17.1595 52.0807 16.9962C52.4594 17.105 52.8382 17.2683 53.2169 17.4316C54.7861 18.3025 55.5436 19.7722 55.4895 21.5684C56.0306 22.2216 56.6799 22.8204 56.734 23.5824C56.6258 23.6913 56.8422 24.0723 56.734 24.1812L56.8422 24.29C56.8422 24.29 56.9504 24.6711 56.734 24.7799H56.8422L56.734 24.9432H56.8422L56.734 25.1609C56.7881 26.4129 56.6799 27.5015 56.247 28.699C57.4374 28.318 58.0326 26.9572 58.1949 25.8141C58.0326 25.4331 58.0867 24.8343 58.0867 24.5622L58.1949 24.4533L58.0867 24.3445L58.1949 24.2356C58.1949 24.2356 58.1408 24.0723 58.0867 24.0179C58.3031 23.3103 57.8162 22.6571 57.2751 22.1128L57.3833 22.0039L57.0586 21.7317C56.1388 21.514 55.7059 20.4798 56.0306 19.6089C55.76 18.2481 54.732 16.8873 53.4875 16.2886C53.4875 16.2886 53.3793 16.4519 53.271 16.3974L53.1087 16.4519Z" fill="#FDF4E7"/>
<path d="M27.2449 22.0039C26.9202 21.5684 26.6497 20.9697 26.5956 20.4798L26.4873 20.3709C26.4873 20.3709 26.5414 20.2076 26.5956 20.1532C26.2168 19.5545 26.8661 19.0101 26.5956 18.4658L26.7038 18.357C26.7038 18.357 26.4332 17.8671 26.325 17.7582C25.9463 17.7038 25.7298 16.9962 25.4052 17.2683L25.2969 17.1595L24.8641 17.5405L24.9723 17.6494C24.9723 17.6494 24.9182 17.8126 24.8641 17.8671C25.0805 18.0304 24.6476 18.2481 24.8641 18.357L24.6476 18.5747L24.7559 18.6836L24.6476 18.7924C24.7559 19.1734 24.9182 19.5545 24.8641 19.8811L24.9723 19.9899C24.9723 19.9899 25.1887 20.3709 25.0805 20.4798C25.0805 20.752 25.5675 20.8064 25.4052 21.1874C25.6216 21.5684 25.8921 22.0583 25.8921 22.3849C26.5956 23.3103 27.299 24.29 28.2729 25.1065C28.814 25.3787 29.3551 25.8685 29.9503 25.7053L29.8421 25.5964L29.9503 25.4875C28.7599 24.5078 28.2188 23.2014 27.2449 21.9495V22.0039Z" fill="#FDF4E7"/>
<path d="M28.3811 17.7582C28.3811 17.7582 28.2729 18.2481 28.5976 18.357C29.0845 18.357 29.0304 19.0101 29.6256 18.7924C30.0585 18.6836 30.1126 18.1392 30.2208 17.8127C30.0585 17.4316 29.5715 17.4861 29.4092 17.4861L29.1928 17.2683L29.0845 17.3772L28.9763 17.2683L28.8681 17.3772C28.8681 17.3772 28.5976 17.3228 28.4352 17.2683C28.327 17.3772 28.2188 17.6494 28.327 17.7582H28.3811Z" fill="#FDF4E7"/>
<path d="M35.4693 26.5217L35.5776 26.4129L35.4693 26.304L35.5776 26.1951L35.1447 25.8141C33.305 24.8888 31.4112 23.4736 30.5455 21.6773C30.4373 21.2963 30.2749 20.8608 30.329 20.5887C30.1126 20.3709 29.788 20.0988 29.5174 19.8266C29.1928 19.6089 28.6517 18.9557 28.3811 19.6089C29.2469 22.9837 31.8982 25.923 35.4693 26.5762V26.5217Z" fill="#FDF4E7"/>
<path d="M46.8862 26.304L46.9945 26.4129L47.1027 26.304L47.2109 26.4129C47.6979 26.5217 48.2931 26.1951 48.7259 26.304C49.0506 26.0863 49.4834 26.0863 49.754 26.0863C50.1327 25.8686 50.5656 25.8141 50.9985 25.7053C51.5937 25.1609 52.8923 25.2154 52.8382 24.1812C52.6758 24.0179 52.2971 24.0179 52.1348 24.1812L52.0265 24.0723L51.9183 24.1812C51.9183 24.1812 51.756 24.1812 51.7019 24.0723V24.1812C51.4314 24.29 51.0526 24.4533 50.8903 24.3989L50.6738 24.6166L50.5656 24.5078C50.2951 24.8343 49.8622 24.7255 49.5376 24.8343C49.1588 25.2154 48.7259 24.9432 48.2931 24.9976H47.9684C47.9684 24.9976 47.8061 25.0521 47.752 24.9976C47.3191 25.0521 46.778 25.1065 46.3993 25.0521C44.3431 24.6166 42.6658 23.7457 41.259 21.9495C41.259 21.2963 40.5014 21.514 40.2309 20.9697C40.0145 20.9697 39.9062 20.9697 39.7439 21.0786C40.6638 23.4191 42.774 25.3787 45.2089 26.1407C45.75 26.2496 46.3452 26.4129 46.8862 26.3584V26.304Z" fill="#FDF4E7"/>
<path d="M39.4734 27.8281C39.7439 27.7192 40.2309 28.0458 40.5014 27.937C40.6097 27.937 40.6638 27.9914 40.7179 28.0458L40.8261 27.937L40.9343 28.0458L41.0425 27.937C41.0425 27.937 41.5836 28.0458 41.6918 27.7192C41.8 27.4471 41.5836 27.2293 41.4754 27.0116C39.6357 26.6306 37.5796 25.923 36.6597 24.29L36.768 24.1812C36.6056 23.7457 35.8481 23.4191 36.281 22.8748C36.1728 22.8204 36.1728 22.6571 36.1728 22.5482C35.9022 22.4394 35.6858 22.1672 35.4152 22.2761C35.0365 22.0583 34.6577 21.5684 34.279 21.6773L34.1707 21.5684L34.0625 21.6773L33.9543 21.5684C34.1707 22.1672 34.279 22.9292 34.7659 23.3103C35.2529 23.8546 35.4152 24.7799 36.1728 24.8888L36.0645 24.9976C36.768 26.0863 38.1207 27.1205 39.4193 27.8281H39.4734Z" fill="#FDF4E7"/>
<path d="M9.82192 30.0598C10.0925 30.4408 10.0925 30.9307 10.2007 31.3662C10.9582 33.4346 12.5815 35.1764 14.7999 35.6663L14.9081 35.5574C15.9903 35.7751 16.4773 36.9182 16.9642 37.7891C16.9642 38.4967 17.0725 39.1499 16.4773 39.6942C16.1526 39.9119 15.7197 39.9664 15.4492 39.9119C15.2328 39.9664 14.9081 40.1841 15.0704 40.5107C15.3951 40.7284 15.9362 40.8917 16.3149 40.8373L16.4232 40.9461C16.4232 40.9461 16.7478 40.9461 16.856 40.8373L16.9642 40.9461C16.9642 40.9461 17.2348 40.9461 17.2889 40.8373C18.0464 40.9461 18.8039 41.055 19.5614 41.1639L19.6697 41.055L19.7779 41.1639C19.7779 41.1639 20.2649 40.7829 20.5895 41.055C21.1847 42.0892 21.4552 43.3411 22.3751 44.2121C24.2148 47.6957 28.2729 48.1311 30.3831 51.3426L30.2749 51.4515H30.3831C30.5996 52.1047 31.1407 52.7578 30.8701 53.4655C31.0866 54.0642 31.1948 54.9895 31.5194 55.6972C31.6817 55.7516 31.7359 55.5883 31.8441 55.4794C31.9523 55.0984 32.4934 54.7174 32.1687 54.2819C32.1687 53.792 32.1146 53.3566 32.0605 52.8667C32.1146 52.7578 31.8982 52.649 31.8441 52.5946L31.9523 52.4857C31.9523 52.4857 31.8441 52.268 31.7359 52.1591C31.9523 52.0502 31.5194 51.7781 31.7359 51.6692C31.0866 51.1249 30.9783 50.0907 30.329 49.4375C28.327 48.0223 26.0004 46.5526 24.1607 44.7019L24.2689 44.5931C23.0244 43.2867 22.1587 41.6538 21.4011 40.0752C21.0765 39.041 20.6436 38.0613 20.4813 36.9726L20.5895 36.8638C20.4272 36.5372 20.319 35.9929 20.3731 35.6663L20.2649 35.5574L20.3731 35.4485L20.2649 35.3397C20.2649 35.3397 20.1566 35.0131 20.3731 34.9587L20.2649 34.8498L20.3731 34.7409L20.2649 34.6321C19.8861 33.2168 21.1306 33.2713 21.9422 32.6181C21.9963 32.2371 22.6456 31.9649 22.4292 31.6383C22.4292 31.6383 22.5374 31.475 22.6456 31.5295C22.4833 31.094 22.8621 30.6585 22.7539 30.332C22.7539 30.2231 22.7539 30.0598 22.8621 30.0054L22.7539 29.8965C22.7539 29.8965 22.808 29.7332 22.8621 29.6788L22.7539 29.5699L22.8621 29.461C22.8621 29.461 22.8621 29.1889 22.7539 29.1345L22.8621 29.0256C22.5374 28.8623 23.0785 28.699 22.7539 28.5357L22.8621 28.4268L22.7539 28.318L22.8621 28.2091L22.7539 28.1003L22.8621 27.9914L22.7539 27.8825C22.7539 27.8825 22.5374 27.5015 22.7539 27.3926C22.5374 27.2293 22.7539 26.9028 22.4833 26.7939L22.5915 26.685C22.2128 26.304 22.2128 25.3787 21.347 25.4875C21.0765 26.0863 21.7799 26.7395 21.834 27.1749C21.9422 27.6104 21.9963 27.8825 22.0504 28.318L22.1587 28.4268C22.1587 28.4268 22.2128 28.7534 22.0504 28.8623C22.0504 29.2978 22.1045 30.0598 21.7258 30.3864C21.8881 31.4206 20.6977 31.6927 20.2108 32.4004L20.1025 32.2915C20.2649 32.727 19.6697 32.8358 19.5614 33.2713C18.9663 34.0333 18.2087 32.6725 17.5053 32.9447C17.3971 32.9447 17.343 32.8902 17.2889 32.8358C17.2348 32.9447 17.0725 32.9447 16.9642 32.9447C16.7478 33.0535 16.5855 33.0535 16.6396 33.3801C16.7478 33.6523 17.343 33.9244 17.8841 34.0877C18.2628 34.3055 18.7498 34.4688 19.1286 34.4143L19.2368 34.5232L19.345 34.4143C19.345 36.1562 19.6156 38.0613 20.1566 39.7487L20.0484 39.8575C19.6156 40.0752 19.0745 39.9119 18.5875 39.8575C18.5334 39.6942 18.317 39.7487 18.2087 39.7487C18.1005 39.6398 17.8841 39.4765 18.1005 39.3676L17.9923 39.2588C18.317 38.8777 17.83 38.4423 17.9923 38.0613C17.3971 36.7005 16.6937 35.2308 15.1246 34.7409C14.7458 34.7954 14.2588 34.3055 13.8801 34.3599C12.5273 33.9245 12.3109 32.5092 11.4993 31.5295C11.4452 30.9307 11.1746 30.2231 11.1746 29.7332C11.0664 29.6243 11.2829 29.2433 11.1746 29.1345C11.0664 28.8079 11.4993 28.4268 11.3911 28.1003C11.4993 27.8281 11.878 27.6104 11.6075 27.2838C12.365 26.9572 11.878 26.0318 11.9863 25.5964C11.7157 25.2698 11.2829 24.9432 10.85 24.7799C10.3089 25.1065 10.6877 26.0863 10.1466 26.4129L10.2548 26.5217C9.98425 27.3926 9.98425 27.9914 9.82192 28.9712C9.98425 29.4066 9.93014 29.7332 9.93014 30.1687L9.82192 30.0598Z" fill="#FDF4E7"/>
<path d="M55.7059 29.4066L55.5977 29.2978C55.5977 29.2978 55.5977 28.9167 55.4895 28.8079C55.0566 27.6104 54.5696 26.0863 53.758 24.9976H53.6498C53.3793 24.9976 52.8923 24.9976 52.6217 25.0521C52.7841 25.542 53.4875 25.7053 53.6498 26.304C53.9203 26.685 53.9744 27.2293 53.9744 27.6104C54.0827 27.6648 54.0827 27.8281 54.0827 27.937C53.9744 28.3724 54.245 28.9712 54.1909 29.461C53.758 30.5497 54.2991 31.9105 53.3793 32.7814C53.3793 33.1624 52.5676 33.6523 53.271 33.9244C54.4073 34.1422 54.4073 32.727 55.2189 32.4004C55.5436 31.8016 55.8682 31.094 55.76 30.4952C56.0847 30.1687 55.5977 29.7876 55.76 29.5155L55.7059 29.4066Z" fill="#FDF4E7"/>
<path d="M73.3453 106.591L73.4535 106.482C73.4535 106.482 73.3994 106.319 73.3453 106.264L73.4535 106.155L73.3453 106.047L73.4535 105.938C72.3172 103.379 71.1809 101.365 70.1529 98.8071L70.2611 98.6983L69.7741 98.2084L69.8823 98.0995C69.8823 98.0995 69.5036 97.3919 69.5577 97.1197C68.9625 96.2488 68.692 95.1058 67.9344 94.3981C67.231 93.3639 66.3112 92.2753 65.6619 91.1867C63.8763 89.4448 62.4695 87.2131 60.5216 85.9612C60.4134 85.8524 60.5216 85.5258 60.251 85.6346C59.223 84.2194 57.9244 83.2941 56.5176 82.0966L56.4093 82.2054L55.1648 81.0624C53.0005 80.0826 51.269 78.6129 48.9424 78.0142C48.3472 77.5243 47.8602 77.2521 47.4273 76.8167C47.2109 76.4357 47.3191 75.8913 47.3191 75.6192L47.4273 75.5103L47.3191 75.4015C47.3191 75.4015 47.3732 75.2382 47.4273 75.1837L47.3191 75.0749C47.3191 75.0749 47.3191 74.8027 47.4273 74.7483C47.1568 74.5305 47.5355 74.3128 47.4273 74.0407C47.265 73.6596 47.6438 73.1698 47.5355 72.7887C47.6438 72.4621 47.8061 72.19 47.752 71.809C47.6438 71.5368 47.8602 70.8836 47.752 70.6115L47.8602 70.5026C47.8602 70.5026 47.8061 70.3393 47.752 70.2849C48.0766 69.9038 47.5355 69.4684 47.8602 69.1962C47.3191 68.5431 48.1848 67.8899 47.752 67.2911L47.8602 67.1823L47.752 67.0734L47.8602 66.9645L47.752 66.8557L47.8602 66.7468C47.8602 66.7468 47.8602 66.4746 47.752 66.4746C47.9143 66.0936 47.9143 65.5493 47.9684 65.2227V63.9164L47.8602 63.8075C47.8602 63.8075 47.8602 63.5353 47.9684 63.4809C47.9684 62.991 47.6438 62.229 47.752 61.6847L47.6438 61.5758L47.752 61.4669C47.4814 61.0315 47.9143 60.5416 47.752 60.1606L47.8602 60.0517L47.752 59.9428L47.8602 59.834C47.8602 59.834 47.8061 59.6707 47.752 59.6162L47.8602 59.5074C48.0766 58.6909 47.4273 58.0922 47.6438 57.3845L47.5355 57.2757L47.6438 57.1668L47.5355 57.058H47.6438L47.5355 56.8402L47.6438 56.7314C47.6438 56.2415 47.4814 55.9149 47.3191 55.425C47.0486 55.425 46.778 55.044 46.5075 55.3161L46.3993 55.2073L46.291 55.3161C46.291 55.3161 46.1287 55.2617 46.0746 55.2073C45.75 55.425 45.3171 55.0984 45.0465 55.2073L44.9383 55.0984C44.9383 55.0984 44.5596 55.4794 44.3431 55.2073L44.2349 55.3161L44.1267 55.2073C43.5856 55.2073 42.8281 55.0984 42.0706 55.3161C41.6918 55.1528 41.0425 55.2617 40.6638 55.2073C40.5555 55.2073 40.5014 55.2073 40.4473 55.0984C40.2309 55.1528 39.8521 55.1528 39.6357 55.0984L39.5275 55.2073L39.4193 55.0984L39.311 55.2073L38.9864 54.8807C38.9864 54.8807 38.77 54.4452 38.8782 54.3908L38.77 54.2819C38.77 54.2819 38.8241 54.1731 38.8782 54.0642L38.77 53.9553C38.77 53.9553 38.77 53.7376 38.8782 53.6832L38.77 53.5743L38.8782 53.4655C38.7159 53.1933 39.0946 52.649 38.9864 52.3768C39.311 51.6692 39.5275 50.8527 40.0145 50.1451C42.0706 47.7501 44.6678 46.1172 46.9945 44.1032C47.6979 43.069 48.78 41.9804 49.1588 40.7829H49.267C49.6999 39.8575 49.6458 38.8233 50.0786 37.9524C51.1608 37.7347 50.241 36.8093 50.4033 36.265L50.2951 36.1562C50.2951 36.1562 50.7821 35.9384 51.1067 35.9384C52.1889 36.5916 52.5676 37.5169 53.8662 37.5714C54.1368 37.4625 54.1368 37.3537 54.2991 37.1359C54.1368 36.8093 53.8121 36.5916 53.4875 36.5372C52.73 35.6118 51.756 35.0131 50.6197 34.6321C50.5115 33.87 50.8362 33.1624 50.7279 32.5092C51.2149 31.3662 50.7279 30.5497 50.2951 29.5699C50.1869 29.5699 50.0245 29.2433 49.9163 29.461L49.8081 29.3522C49.8081 29.3522 49.4293 29.8421 49.6999 30.0598L49.5917 30.1687L49.6999 30.2775C49.6999 30.2775 49.6458 30.4408 49.5917 30.4952C49.754 30.7674 49.5917 30.9307 49.8081 31.2029C49.5376 31.7472 50.0245 32.4004 49.6999 32.7814C49.6999 35.503 48.9965 38.4423 47.9684 40.9461C47.4814 41.5993 47.1568 42.0892 46.7239 42.7424C45.8041 43.831 44.3972 44.7564 43.3692 45.9539L43.261 45.845C42.4493 46.4438 41.4213 47.1514 40.7179 47.859H40.6096C40.0145 48.3489 39.4734 49.2198 38.9864 49.873C38.9864 50.4173 38.5535 50.9616 38.5535 51.397C38.5535 52.0502 38.0666 52.649 38.283 53.1933C38.2289 53.792 38.8782 54.8807 37.8501 55.2073C37.4714 55.2073 36.7679 55.1528 36.3351 55.3161C36.0104 55.044 35.6317 55.425 35.4152 55.3161C34.9824 55.425 34.1707 55.5883 33.6838 55.5339C33.5755 55.5339 33.5214 55.5883 33.4673 55.6427L33.3591 55.5339L33.2509 55.6427H31.1948L31.0866 55.7516L30.9783 55.6427L30.8701 55.7516C30.8701 55.7516 30.7078 55.7516 30.6537 55.6427L30.5455 55.7516C30.5455 55.7516 30.3831 55.7516 30.329 55.6427L30.2208 55.7516C29.788 55.7516 29.301 55.7516 28.8681 55.7516C28.4352 55.9693 27.5154 55.8605 27.0284 55.8605C26.9202 55.8605 26.7038 55.7516 26.6497 55.9693H25.9463C25.4052 56.187 24.6476 56.0782 24.1607 56.0782C23.836 56.2959 23.2949 56.0782 22.9162 56.2959C22.808 56.6769 21.9422 56.2959 22.1045 57.0035C23.0785 57.3845 22.2669 58.3643 22.5374 58.9631L22.4292 59.0719C22.3751 59.6707 22.9162 60.1606 22.7539 60.7049L22.8621 60.8137H22.7539C23.1326 61.3581 22.8621 62.1745 22.9703 62.61L23.0785 62.7189C23.0785 62.7189 23.1326 63.0999 22.9703 63.2087L23.0785 63.3176L22.9703 63.4265C23.5114 65.0594 23.2408 66.7468 23.1867 68.4342L23.2949 68.5431C23.2949 68.5431 23.4573 69.0874 23.2949 69.2507L23.4032 69.3595C23.4032 69.3595 23.4032 69.6317 23.2949 69.6317L23.4032 69.7405C23.4032 69.7405 23.349 69.9038 23.2949 69.9038C23.4032 70.557 23.5655 71.2646 23.5114 71.8634C23.5114 72.2444 23.8901 72.571 23.6196 72.952L23.7278 73.0609C23.7278 73.0609 23.836 73.3875 23.6196 73.4419V74.585C23.4032 75.2382 23.6196 75.6736 23.6196 76.2724L23.7278 76.3812L23.6196 76.4901L23.7278 76.599L23.6196 76.7078C23.8901 76.9255 23.4032 77.1977 23.7278 77.4154L23.4573 77.7965C21.7799 78.2863 20.5354 79.1572 19.1286 80.0282C18.6416 80.2459 18.0464 80.8991 17.5053 80.7358L16.856 81.4434C16.5314 81.8244 15.9903 82.2054 15.5033 82.4231L15.6115 82.532C15.341 82.8586 14.6917 83.0763 14.4753 83.5662L14.367 83.4574C14.1506 83.784 13.8801 84.0017 13.5554 84.2194H13.4472C12.5815 85.0903 11.337 86.0156 10.5794 87.1587L10.6877 87.2676L10.363 87.5942C10.4171 88.1929 9.7137 88.5739 9.87603 89.1183L9.76781 89.2271C9.76781 89.2271 10.0384 89.4449 10.1466 89.5537C10.9041 89.2271 11.3911 88.4107 11.878 87.8119C12.0945 87.5942 12.365 87.3764 12.5273 87.1043C13.3931 86.3422 14.5294 85.2536 15.6115 84.4916C16.2067 83.8928 16.856 83.6206 17.4512 83.0763L17.343 82.9675C18.0464 82.532 18.6957 82.2054 19.3991 81.6611C20.9142 81.2256 21.9963 80.1915 23.5114 79.6471C23.9442 79.8104 23.5114 80.2459 23.7278 80.4636C23.4032 80.8446 23.9983 81.2801 23.5114 81.6611C23.6737 81.8788 23.6196 82.3143 23.6196 82.4776L23.5114 82.5864L23.6196 82.6953L23.5114 82.8042L23.6196 82.913C23.5114 83.1852 23.7819 83.6751 23.4032 83.7295C23.6196 83.7839 23.4032 84.0017 23.2949 84.1105C21.834 84.6004 20.5354 85.7435 19.5073 86.8321C18.5875 87.322 17.83 86.2334 17.0184 85.9612C16.7478 85.7979 16.1526 85.8524 15.8821 85.8524L15.7739 85.9612L15.6656 85.8524C15.5033 86.1789 15.8821 86.4511 15.7739 86.6688H15.8821C16.856 88.1385 15.0704 86.8866 14.7458 87.4853L15.8821 89.1183C16.2067 89.6626 16.8019 89.9347 17.1266 90.6423C15.9362 92.0031 14.854 93.5817 13.7177 95.0513L13.8259 95.1602C12.7979 97.5007 11.337 99.4603 10.9582 101.964C10.9582 102.291 10.4712 102.182 10.6335 102.563C10.5794 102.617 10.5253 102.672 10.4171 102.672C10.4712 102.944 10.363 103.379 10.0925 103.706C10.4171 104.577 11.3911 104.795 12.1486 105.121C12.852 105.774 13.8801 105.883 14.6376 106.264C14.9622 106.428 15.3951 106.754 15.6656 106.754C16.0444 107.081 16.6937 107.081 17.0725 107.135C18.2087 107.353 19.7238 107.407 20.8059 107.734C21.0765 107.843 21.5094 108.006 21.7258 107.952C22.4833 108.224 23.4032 108.224 24.1066 108.55C24.5935 108.55 25.3511 108.823 25.838 108.768C26.2709 109.149 27.1366 108.877 27.5695 108.986C28.0565 109.149 28.814 109.095 29.2469 109.095L29.3551 108.986C29.8421 109.149 30.1667 109.095 30.5996 109.095C30.816 108.986 31.1948 109.367 31.5194 109.095C31.9523 108.986 32.6016 109.367 33.0345 109.204L33.1427 109.095C33.6297 109.421 34.1707 108.931 34.5495 109.095L34.6577 108.986C34.6577 108.986 34.82 109.04 34.8742 109.095C35.0906 108.714 35.9022 108.986 36.2269 108.877L36.3351 108.768L36.4433 108.877C36.9303 108.333 37.7419 109.204 38.0666 108.496C39.2569 108.605 40.3391 108.006 40.9343 107.19L40.8261 107.081L40.9343 106.972C40.9343 106.972 40.6096 106.645 40.5555 106.863L40.4473 106.754L40.3391 106.863L40.2309 106.754C40.2309 106.754 39.5816 106.645 39.4193 107.026C38.8241 106.972 38.3371 107.19 37.796 107.135L37.6878 107.244C37.6878 107.244 37.5255 107.19 37.4714 107.135L37.3631 107.244C37.0926 106.917 36.8221 107.462 36.5515 107.135C36.3351 107.462 36.1728 106.917 35.9563 107.244C35.8481 107.19 35.5235 107.19 35.307 107.353C34.5495 107.026 34.1707 107.571 33.5755 107.462H33.4673C33.4673 107.462 33.305 107.462 33.2509 107.462C33.1427 107.952 32.7098 107.353 32.5475 107.516H32.4393C32.1687 107.516 31.8441 107.788 31.5194 107.516L31.4112 107.625L31.303 107.516C31.303 107.516 31.0324 107.516 30.9783 107.625L30.8701 107.516L30.7619 107.625C30.7619 107.625 30.5996 107.625 30.5455 107.516L30.4373 107.625L30.329 107.516L30.2208 107.625L30.1126 107.516L30.0044 107.625C29.788 107.244 29.2469 107.516 29.0845 107.407C28.8681 107.407 28.5435 107.462 28.3811 107.298C27.7859 107.462 27.0284 107.081 26.4332 107.19C26.1627 106.809 25.4593 107.026 25.1887 106.972C25.0264 106.7 24.7018 106.7 24.4853 106.591C23.6196 107.081 22.8621 106.101 21.834 106.373C21.347 106.264 20.9142 105.938 20.4813 106.047C20.3731 106.047 20.319 105.992 20.2649 105.938C19.6156 106.047 18.9121 105.829 18.2087 105.72C17.9923 105.72 17.8841 105.339 17.7218 105.611C16.5855 105.284 15.5574 104.849 14.5294 104.305C13.8259 104.522 12.9061 103.869 12.2568 103.379L12.1486 103.488L11.6616 103.107C12.0404 102.889 11.7698 102.454 12.1486 102.291L12.0404 102.182C12.0404 102.182 12.1486 102.073 12.2568 102.073C12.2568 101.964 12.2568 101.801 12.365 101.746L12.2568 101.638L12.365 101.529L12.2568 101.42C12.5273 100.113 13.7177 99.1337 14.0965 97.8818C14.5835 96.8476 15.2869 95.8678 15.5033 94.7247C16.0444 93.9083 16.5314 93.1462 17.1807 92.2209C17.4512 91.7854 17.2889 90.8056 18.2087 90.9145C18.9663 91.4044 20.2649 91.1867 21.0765 91.1322C21.0765 91.731 20.319 92.6019 19.832 93.1462L19.9402 93.2551L19.832 93.3639C19.832 93.3639 20.1025 93.745 20.2649 93.9627C22.6456 93.1462 25.2428 92.5475 27.3531 91.2411C27.6777 90.5335 28.0565 89.7714 28.1647 89.1183C28.0024 88.5195 28.1647 87.703 28.2729 87.1043C28.4352 86.7233 28.0565 86.1789 28.1647 85.7979L28.0565 85.6891C28.0565 85.6891 27.84 85.308 28.0565 85.1992L27.9483 85.0903L28.0565 84.9814C27.3531 84.3283 28.6517 84.4371 28.7058 83.8928C29.3551 83.4029 29.5174 82.8586 29.7338 82.0966C29.5174 81.4434 29.6256 80.9535 29.6256 80.4092C29.6256 80.3003 29.6797 80.2459 29.7338 80.1914C29.9503 79.5927 29.301 79.0484 29.5174 78.2863C29.8962 78.123 30.5996 77.9598 31.1407 77.9053C32.7639 78.1775 34.0084 77.742 35.6858 77.5787H36.9303L37.0385 77.6876C37.0385 77.6876 37.309 77.6332 37.4714 77.5787C37.796 77.2521 38.1207 77.742 38.3912 77.5787L38.4994 77.6876H40.4473C40.7179 77.9597 41.3131 77.5787 41.4754 78.123L41.3672 78.2319C41.3672 78.2319 41.3672 78.3952 41.4754 78.4496L41.3672 78.5585V80.1914L41.2589 80.3003V81.4434L41.1507 81.5522L41.2589 81.6611L41.1507 81.77L41.2589 81.8788L41.1507 81.9877L41.2589 82.0966C41.2589 82.0966 41.2048 82.2599 41.1507 82.3143L41.2589 82.4231C41.2589 82.4231 41.2048 82.5864 41.1507 82.6409L41.2589 82.7497C41.2589 82.7497 41.3672 83.0763 41.1507 83.1852C41.0966 83.4574 41.3672 83.8928 41.2589 84.165C41.2589 84.2738 41.3131 84.3283 41.3672 84.3827C41.3672 84.927 41.3131 85.7979 41.9624 86.0701C42.0706 86.56 42.2329 87.0498 42.1788 87.4853L42.287 87.5942C42.287 87.5942 42.3952 87.9208 42.1788 87.9752L42.287 88.0841L42.1788 88.1929L42.287 88.3018L42.1788 88.4106C42.1788 88.4106 42.1788 88.6828 42.287 88.7372C42.1247 89.336 42.1788 90.2069 42.1788 90.7512L42.287 90.8601C42.3952 91.6221 43.0445 92.5475 43.9644 92.8741L44.0726 92.7652C44.0726 92.7652 44.7219 93.0918 44.8842 93.0373L45.1007 93.2551C47.0486 93.5272 48.6177 94.5614 50.4574 95.0513L50.5656 94.9425C50.9444 94.9425 51.3772 95.3235 51.8101 95.0513L51.9183 95.1602L52.0265 95.0513L52.1348 95.1602C52.5676 95.1057 52.7841 94.888 52.9464 94.5614C53.1628 93.4184 51.9724 92.8741 51.5937 91.9487C52.8382 91.731 53.9203 92.0031 55.0025 91.35C56.734 92.2753 57.762 93.745 58.5737 95.269C60.4675 97.3919 61.4414 100.005 62.9024 102.182C62.4154 102.781 61.6037 102.617 61.0627 103.053C59.223 104.196 56.734 104.141 55.0025 104.958C54.7861 104.795 54.3532 105.176 54.1909 105.067C54.0827 105.067 54.0286 105.121 53.9744 105.176L53.8662 105.067L53.6498 105.284L53.5416 105.176C52.9464 105.339 52.4053 105.611 51.8101 105.774C51.3231 105.938 50.5656 105.829 50.1869 105.883L50.0786 105.992C50.0786 105.992 49.9163 105.938 49.8622 105.883L49.754 105.992C49.754 105.992 49.5917 105.938 49.5376 105.883C48.6177 106.155 47.5896 106.155 46.5616 106.319H45.75C45.2089 106.536 44.5055 106.754 44.0185 106.7L43.9103 106.809L43.8021 106.7C43.8021 106.7 43.6397 106.972 43.5315 106.917C43.2069 106.972 42.9904 107.19 43.0986 107.516C43.8021 108.061 44.6678 107.625 45.4794 108.006C45.8582 107.843 46.5075 107.897 46.8321 107.897L46.9403 107.788C46.9403 107.788 47.1027 107.788 47.1568 107.897L47.265 107.788C47.265 107.788 47.9684 107.843 48.0766 107.897L48.1848 107.788C48.5636 107.897 49.1047 107.571 49.4834 107.679C49.6999 107.407 50.0786 107.788 50.241 107.353C50.3492 107.407 50.6738 107.407 50.8362 107.244C51.4855 107.407 52.0265 106.917 52.6758 106.917C53.271 106.917 53.7039 106.428 54.1909 106.591C54.8402 106.645 55.0566 105.992 55.76 106.21C56.3011 105.992 57.0586 105.666 57.7079 105.774C57.9244 105.666 58.1949 105.611 58.4655 105.557C58.5737 105.502 58.736 105.23 58.8442 105.448C59.0606 105.176 59.5476 105.284 59.7641 105.23C60.4675 104.903 61.225 104.686 61.8202 104.196C62.6859 103.652 63.8763 104.522 64.3633 103.488C64.4715 103.053 64.6338 102.563 64.5797 102.182C64.0927 100.821 63.1188 99.678 62.5236 98.3717C62.1989 96.902 61.1168 96.3577 60.3593 95.0513C60.4675 94.507 59.7641 94.0171 59.8182 93.3095C59.1689 92.2209 57.8162 91.2411 56.9504 90.3702C56.6258 89.9347 57.3833 89.6081 57.5997 89.3904C57.6538 88.7917 58.5737 88.3562 58.4113 87.7575L58.5196 87.6486L58.1949 87.2131C58.1949 87.2131 57.6538 86.9954 57.4915 86.9954C57.3833 86.9954 57.1669 87.0499 57.1127 86.8866L57.0045 86.9954H56.0847L55.9765 87.1043C55.9765 87.1043 55.6518 87.2132 55.5977 86.9954C55.3272 87.2132 54.8402 86.9954 54.5696 87.2131C54.1909 87.1587 54.1368 86.7233 53.9203 86.5055L53.8121 86.6144C53.0546 85.7979 52.3512 84.9814 51.756 84.2738C51.2149 83.0219 49.8081 82.3143 48.6718 81.8788C48.4554 81.2257 47.4273 81.5522 47.6438 80.8991L47.5355 80.7902L47.6438 80.6813C47.6438 80.6813 47.5896 80.518 47.5355 80.4636L47.6438 80.3547C47.5896 79.8649 47.6438 79.2661 47.9143 78.8307L48.0225 78.9395C48.0225 78.9395 48.1848 78.9395 48.239 78.8307C49.1588 79.375 50.4574 79.2661 51.2149 80.137C52.9464 80.7358 54.5155 82.2599 55.9224 83.2941C57.8161 83.8928 58.4113 86.4511 60.1428 86.9954C60.5757 87.9208 61.4414 88.4651 61.8743 89.4449C63.714 91.2955 65.229 93.2551 66.6899 95.269C67.231 96.1944 67.6639 97.1197 68.3673 97.9906C68.692 99.8957 69.9906 101.148 70.7481 102.889L70.6399 102.998C70.9645 103.706 71.2892 104.414 71.8844 105.012C71.7761 105.121 71.8844 105.393 71.9926 105.502C72.1549 105.774 72.1549 106.21 71.7761 106.373C70.3152 106.319 70.3152 107.734 69.0707 108.169L68.9625 108.061C68.692 108.278 68.2591 108.605 67.9344 108.496C67.5557 108.714 67.0687 108.823 66.6358 108.986C65.3913 109.204 64.3092 109.748 63.227 110.183H62.5236C62.0366 110.292 61.4955 110.401 61.0627 110.673C60.738 110.51 60.251 110.891 59.9264 110.782L59.7099 111C59.7099 111 59.1689 111.109 59.1148 111C58.1949 111.435 57.1669 111.707 56.1388 111.871C55.4895 111.871 55.0025 112.306 54.4073 112.361C54.1909 112.687 53.4334 112.524 53.7039 113.177C54.0827 113.34 54.6237 113.286 55.1107 113.286C55.3272 113.123 55.7059 113.232 55.8682 113.177C56.1929 113.068 56.4634 112.905 56.8963 112.959C57.4915 112.796 58.1408 112.361 58.736 112.524C59.3312 112.197 60.0887 112.361 60.6839 112.034L61.712 111.707C62.0907 111.816 62.3613 111.599 62.74 111.599L62.8482 111.49C63.7681 111.326 64.742 111.054 65.3913 110.619C66.6899 110.456 68.0427 109.693 69.5036 109.585C69.9365 109.421 70.3693 109.095 70.7481 109.095C70.8563 109.095 70.9104 109.04 70.9645 108.986L71.0727 109.095C71.7761 108.605 72.5878 108.061 73.2371 107.462C73.4535 107.135 73.6699 106.645 73.6158 106.373L73.724 106.264C73.724 106.264 73.6699 106.101 73.6158 106.047L73.3453 106.591ZM19.8861 88.2474L19.9943 88.1385L19.8861 88.0296C21.2929 87.2131 22.7539 86.2334 24.0525 85.0903C24.323 85.4169 23.9983 85.6891 23.9442 85.9612L24.0525 86.0701C23.2949 87.5942 21.7799 88.3562 19.9402 88.4106C19.9402 88.3562 19.832 88.3018 19.832 88.1929L19.8861 88.2474ZM17.6135 88.2474L17.3971 88.0296C17.6677 87.6486 17.7218 88.3018 18.0464 88.1385C17.9382 88.3018 17.7759 88.2474 17.6677 88.2474H17.6135ZM26.7579 85.308L26.6497 85.4169L26.7579 85.5258C26.5956 86.0156 27.1366 86.6688 26.6497 87.1587C26.7579 87.322 26.8661 87.5397 26.7579 87.6486C26.8661 87.703 26.8661 87.8663 26.8661 87.9752L26.7579 88.0841V89.1727C26.4873 91.4044 24.2148 91.5133 22.6456 92.3297L22.5374 92.2209C22.5374 92.2209 22.321 92.3297 22.2669 92.3297C22.2669 91.731 23.1867 91.5133 22.9703 90.9145L23.0785 90.8056C22.5374 90.098 21.5094 90.5335 20.7518 90.3702C19.7779 90.6424 18.7498 90.4246 18.0464 89.7714L17.9382 89.8803C17.9382 89.8803 18.2628 89.8259 18.4252 89.7714L18.5334 89.8803C18.5334 89.8803 18.858 89.8259 19.0204 89.7714L19.1286 89.8803C19.1286 89.8803 19.2368 89.7714 19.345 89.7714L19.4532 89.8803C20.2108 89.4993 21.2929 90.3158 21.9963 89.5537L22.1045 89.6626C22.1045 89.6626 22.2128 89.5537 22.2128 89.4449C22.4833 89.5537 22.8621 89.336 23.1326 89.1183C24.4853 88.6284 24.7018 87.1587 25.297 86.0701C25.297 85.8524 25.1887 85.3625 25.5134 85.1992C25.2969 85.0903 25.5134 84.927 25.5134 84.7637C25.5675 84.7093 25.838 84.4371 26.0004 84.6548L26.1086 84.546L26.2168 84.6548C26.4332 84.3283 26.5956 84.7637 26.8661 84.6548C26.8661 84.8726 26.8661 85.0359 26.6497 85.1447L26.7579 85.2536V85.308ZM28.2729 79.0484L28.1647 79.1573L28.2729 79.2661C28.2729 79.2661 28.1647 79.5383 28.1647 79.7016C28.1647 79.9193 28.2729 80.4092 28.0565 80.7358C28.2188 81.0624 28.1106 81.6611 28.1647 81.9333C28.1647 82.3143 28.2729 82.6953 28.0565 83.1308C27.4072 83.5118 26.1086 83.2396 25.5134 83.3485C25.2428 83.5662 24.81 83.3485 24.5935 83.5662C24.4853 83.4029 24.4853 83.1852 24.4853 82.9675L24.5935 82.8586C24.5935 82.8586 24.5394 82.5864 24.4853 82.4776C24.4853 82.2054 24.3771 81.6067 24.5935 81.2801C24.81 80.6269 24.5935 79.5927 24.81 78.8307C24.1607 78.0142 25.0805 77.6332 24.81 76.8167L24.9182 76.7078C24.9182 76.7078 24.81 76.4901 24.81 76.3812L24.9182 76.2724C24.9182 76.2724 24.81 76.1635 24.81 76.0546C24.9723 75.728 24.4853 75.2926 24.7018 74.9116C24.5394 73.9862 24.5394 72.7887 24.323 71.809C24.323 71.5912 24.323 71.1558 24.2148 70.8836C24.3771 70.7748 24.323 70.557 24.323 70.3937H24.2148L24.323 70.176H24.2148C24.2148 69.2507 24.5935 68.3798 24.323 67.5633C24.81 67.0734 24.5935 66.2025 24.5394 65.6582C24.2689 65.3316 24.1066 64.9506 24.1066 64.624C24.3771 64.1885 23.836 63.7531 23.9983 63.2087C23.8901 62.991 24.1066 62.6644 24.2148 62.3923C23.9983 61.5214 24.323 60.4327 23.5114 59.7795L23.6196 59.6707C23.6196 59.6707 23.5655 59.3985 23.5114 59.2352C23.4032 58.7998 23.6196 58.201 23.8901 57.82C24.3771 57.82 24.81 57.6023 25.2428 57.4934C25.6757 57.4934 26.4873 57.4934 26.9743 57.6023C27.1366 57.4934 27.1907 57.3301 27.4072 57.3845C27.2449 58.0922 28.1647 57.9833 27.7859 58.6909C27.9483 59.3441 27.6236 60.4327 27.8942 61.1948L27.7859 61.3036C27.7859 61.3036 27.8942 61.5214 27.8942 61.6302L27.7859 61.7391C27.7859 61.7391 27.8942 61.8479 27.8942 61.9568C27.7318 62.2834 28.1647 62.7189 27.8942 63.1543L28.0024 63.2632C28.0024 63.2632 27.8942 63.4809 27.8942 63.5898L28.0024 63.6986H27.8942C27.8942 63.6986 28.0024 64.0252 28.0024 64.0796L27.8942 64.1885C27.8942 64.5151 27.7859 65.1139 28.0024 65.4949C27.8942 65.9848 27.7318 66.5291 27.7859 67.019C27.9483 67.5088 27.4613 68.3253 27.7859 69.0329C27.5695 69.1418 28.0024 69.414 27.7859 69.5228C27.8942 69.5228 27.8942 69.7406 27.8942 69.795C27.7318 70.2304 28.1647 70.7203 27.8942 71.2102C28.1647 71.7545 27.7859 72.6799 28.1647 73.0065C28.0024 74.0407 28.1106 75.1293 28.0565 76.0002C28.2729 76.2179 27.84 76.5445 28.1647 76.7623C28.0565 76.9255 27.9483 77.1977 28.0565 77.2521C27.9483 77.6876 28.1647 78.1775 28.2729 78.6674L28.1647 78.7762L28.2729 78.8851V79.0484ZM41.2048 71.3191L41.0966 71.4279V73.0609C40.9343 73.3875 41.4213 73.6052 41.0966 73.8774L41.2048 73.9862C41.2048 74.3672 41.0966 74.966 40.9884 75.4015C40.1768 75.8913 39.1487 76.2724 38.2289 76.2724L38.1207 76.1635L38.0124 76.2724L37.9042 76.1635C37.9042 76.1635 37.796 76.2724 37.6878 76.2724L37.5796 76.1635L37.4714 76.2724C37.4714 76.2724 37.3631 76.1635 37.2549 76.1635L37.1467 76.2724L37.0385 76.1635L36.9303 76.2724L36.8221 76.1635C36.8221 76.1635 36.6056 76.2724 36.5515 76.2724L36.4433 76.1635C36.4433 76.1635 36.1728 76.2179 36.0645 76.2724L35.9563 76.1635C35.9563 76.1635 35.6317 76.2179 35.4152 76.2724C35.307 76.1635 34.9283 76.3812 34.7659 76.2724C34.7659 76.4357 34.5495 76.3812 34.4954 76.3812L34.3872 76.2724C34.3872 76.2724 34.1707 76.3812 34.0625 76.3812L33.9543 76.2724L33.8461 76.3812L33.7379 76.2724L33.6297 76.3812C33.6297 76.3812 33.5214 76.2724 33.4132 76.2724L33.305 76.3812C33.305 76.3812 32.9804 76.2724 32.818 76.2724L32.7098 76.3812L32.6016 76.2724C32.6016 76.2724 32.4934 76.4357 32.3852 76.3812L32.2769 76.2724C32.0064 76.2724 31.4112 76.2179 31.0324 76.3812L30.9242 76.2724L30.816 76.3812L30.7078 76.2724C30.329 76.2724 29.6797 76.3812 29.301 76.1635C29.301 76.0546 29.301 75.8913 29.1928 75.8369L29.301 75.728C29.301 75.728 29.1387 75.6192 29.1928 75.5103L29.301 75.4015C29.301 75.4015 29.1928 75.0749 29.1928 74.9116V73.8774C29.1928 73.8774 29.301 73.7685 29.301 73.6596H29.1928C29.1387 73.1698 29.0845 72.8976 28.9763 72.4621C28.3811 72.3533 28.814 71.9178 28.8681 71.6457H28.9763L28.8681 71.4279L28.9763 71.3191C28.7058 71.0469 29.0304 70.8292 29.0845 70.557L28.9763 70.4482L29.0845 70.3393C29.0845 69.8494 29.1928 69.0329 28.9763 68.4342L29.0845 68.3253L28.9763 68.2165C28.9763 68.2165 29.0304 67.9443 29.0845 67.781C28.8681 67.6722 29.301 67.4 29.0845 67.2911C29.1928 66.6924 29.3551 66.4202 29.301 65.8759C29.1387 65.6582 29.4092 65.2227 29.1928 65.005C29.3551 64.8961 29.301 64.7328 29.301 64.5695L29.1928 64.4607C29.1928 64.4607 29.301 64.1885 29.301 64.0252L29.1928 63.9164C29.1928 63.9164 29.301 63.8075 29.301 63.6986H29.1928L29.301 63.4809L29.1928 63.372L29.301 63.2632L29.1928 63.1543C29.1928 63.1543 29.301 62.9366 29.301 62.8821L29.1928 62.7733C29.1928 62.7733 28.8681 62.3923 29.1928 62.1745C29.1928 61.1403 28.7599 59.9973 28.8681 59.1264C28.8681 59.0175 28.8681 58.8542 28.7599 58.8542C28.9763 58.6909 28.5435 58.4732 28.7599 58.3643L28.6517 58.2555L28.7599 58.1466C28.7599 58.1466 28.9222 57.439 28.5435 57.2757C28.814 57.1668 29.1387 57.2757 29.3551 57.058H29.5715C30.2208 57.3301 30.816 56.5136 31.5194 56.9491C32.4934 56.8947 33.9543 56.7314 34.9283 56.9491L35.0365 56.8402C35.5235 56.8947 36.281 56.7314 36.7679 56.8402C36.9844 56.5136 37.2008 57.0579 37.4172 56.7314C37.796 56.8947 38.283 56.8947 38.6617 56.7314C39.2028 56.8947 40.1227 56.2959 40.3391 57.2212C40.2309 57.6023 40.4473 58.2554 40.5555 58.6365C40.5555 59.4529 40.9343 60.3239 40.6638 61.1403C40.6638 61.4669 41.0425 61.7391 40.772 62.0657L40.8802 62.1745C40.8802 62.4467 40.9343 63.0454 40.772 63.4265C40.9343 63.9708 40.8802 64.3518 40.8802 64.8417C40.8802 65.2772 40.9343 65.7126 40.8802 66.1481C40.7179 66.4202 41.2048 66.8012 40.8802 67.1823C41.0425 67.5633 40.9343 68.162 40.9884 68.4886V69.9038C40.9884 69.9038 40.9884 70.3937 41.2048 70.5026L41.0966 70.6115C41.4213 70.8292 40.8802 71.0469 41.2048 71.2102V71.3191ZM42.9363 83.7839C42.9363 83.7839 42.8281 83.9472 42.7199 83.8928L42.6117 83.7839C42.6117 83.7839 42.3952 83.8928 42.287 83.8928C42.0706 83.7295 42.2329 83.1308 42.1788 82.8586C42.1788 82.532 42.5576 82.2599 42.287 81.9333L42.3952 81.8244L42.287 81.7155L42.3952 81.6067C42.1788 80.9535 42.774 80.3547 42.6117 79.5927C42.7199 78.6674 42.3952 78.123 42.5034 77.0888C42.5034 76.7622 42.5034 76.1091 42.3952 75.8369C42.287 75.4559 42.5034 75.1837 42.6117 74.8571C42.5576 74.8571 42.4493 74.8027 42.5034 74.6394C42.4493 74.2584 42.7199 73.4963 42.287 73.1153L42.3952 73.0065C42.3952 73.0065 42.287 72.2444 42.5034 71.9723C42.4493 71.4824 42.2329 70.938 42.287 70.557C42.287 70.2849 42.287 69.7405 42.0706 69.4684L42.1788 69.3595L42.0706 69.2507C42.3952 69.0874 41.8541 68.9241 42.1788 68.7608V68.0532C42.4493 67.6721 42.0165 67.2367 42.1788 66.9645L42.287 66.8557C42.287 66.8557 42.1788 66.1481 42.3952 65.8215C42.3411 65.4404 42.3952 64.7873 42.0706 64.4062C42.287 64.2974 42.0706 64.1341 42.0706 63.9708L41.7459 63.6442C42.2329 63.4265 42.0706 62.7733 42.287 62.3378C42.3952 61.8479 41.7459 61.9024 41.7459 61.4125C41.7459 61.0315 42.3411 60.8682 42.287 60.4327C42.2329 60.3783 42.1788 60.3239 42.1788 60.215L42.287 60.1061C42.287 60.1061 42.1788 59.8884 42.1788 59.834C42.1788 59.3441 41.7459 58.6909 41.8541 58.201C41.6377 58.0922 41.7459 57.8744 41.7459 57.7111L41.8541 57.6023C41.8541 57.6023 41.6918 57.1124 41.8541 56.8947C42.0165 56.4592 42.6658 56.4592 42.9904 56.5136C43.0986 56.3503 43.3151 56.4048 43.4774 56.4048L43.5856 56.5136C43.5856 56.5136 43.8021 56.4048 43.9103 56.4048C44.3431 56.4048 45.0466 56.4048 45.5335 56.6225C46.0205 57.439 45.4794 58.3099 45.6417 59.2352C45.75 60.1606 45.8582 61.2492 46.0205 62.0657C45.9664 62.3378 46.2369 62.7733 46.1287 63.0454L46.2369 63.1543L46.1287 63.2632C46.1287 63.2632 46.2369 63.4809 46.2369 63.5898V65.2771L46.1287 65.386C46.1287 65.386 45.8041 65.8759 46.1287 66.0936L46.0205 66.2025C46.0205 66.2025 46.1287 66.8012 45.9123 67.019C45.9123 67.9443 46.3452 68.8696 45.9123 69.7405C46.4534 70.1216 45.6959 70.557 46.1287 70.9925C46.1287 71.4824 45.75 71.9178 46.0205 72.4077C45.75 72.7887 45.8582 73.2786 45.8041 73.7141C45.6417 73.8229 45.6959 73.9862 45.6959 74.0951L45.8041 74.204L45.6959 74.3128C45.6959 74.3128 45.8041 74.8027 45.6959 75.0204C45.6959 75.0204 45.8041 75.1293 45.8041 75.2382L45.6959 75.347L45.8041 75.4559V76.599L45.9123 76.7078C45.9123 76.7078 46.1287 77.0888 45.9123 77.1977C46.0746 77.3066 45.9123 77.4699 46.0205 77.6332C45.9123 77.742 46.0205 78.0142 46.1287 78.123C45.9664 78.4496 46.0205 79.0484 46.0205 79.3205L45.9123 79.4294C45.9123 79.4294 45.9123 79.7016 46.0205 79.8649V81.4434C46.0205 81.4434 46.1287 81.8788 45.9123 81.9333C46.0746 82.151 46.0746 82.4776 45.9123 82.6409C45.6417 83.1308 45.263 83.4029 44.776 83.5118C44.1808 83.3485 43.4774 83.7839 42.9363 83.8384L42.8281 83.7295L42.9363 83.7839ZM54.8402 89.1183L54.9484 89.0094C54.9484 89.0094 55.3813 89.0094 55.6518 89.0094C55.2731 89.6626 54.245 90.2069 53.3793 90.5335C52.0807 90.6424 50.9444 91.1322 49.9163 91.9487C50.0245 92.3842 50.5115 92.7108 50.4033 93.2551C50.2951 93.2551 50.1327 93.2551 50.0786 93.1462L49.9704 93.2551C49.1588 92.8196 48.2931 92.493 47.4273 92.2209C47.2109 92.493 47.0486 92.112 46.8321 92.112C46.6157 92.2753 46.1828 91.8943 46.0205 92.0031C45.0465 91.5677 43.2069 91.7854 43.3151 90.3158H43.2069L43.3151 90.098L43.2069 89.9892L43.3151 89.8803L43.2069 89.7714C43.2069 89.7714 43.0445 89.1727 43.2069 88.955C42.8822 88.3018 44.1808 87.9208 43.3151 87.2676L43.4233 87.1587C43.4233 87.1587 43.261 86.8866 43.0986 86.7233C43.3151 86.1245 43.4774 85.6346 44.0185 85.1992C44.5055 85.4169 45.3171 84.7093 45.8041 85.4169C46.0746 86.1245 46.3452 86.7777 46.9403 87.322C47.3191 88.7917 48.8882 88.5739 49.9163 89.0094C51.6478 89.2816 53.271 88.955 54.8402 89.0094V89.1183ZM47.4814 83.2941L47.3732 83.1852C47.9143 82.913 48.4013 83.5662 48.8883 83.8928L50.1869 85.308C50.782 86.0701 51.5396 87.0499 52.1348 87.8119C51.9724 87.9752 51.6478 87.9752 51.4855 87.9208C50.8362 88.0296 50.241 87.3764 49.5376 87.322L49.4293 87.4309C48.2931 86.56 47.3732 85.8524 46.778 84.6004C46.5075 83.8928 47.3191 83.8928 47.3732 83.2941H47.4814Z" fill="#FDF4E7"/>
<path d="M42.2329 36.1017C43.3692 36.265 44.776 35.9384 45.6959 34.9042C45.8582 34.4143 45.6959 33.7612 46.3452 33.489L46.2369 33.3801C46.3452 32.4004 45.0466 32.8902 44.5055 32.4548C43.8562 32.6181 43.3692 32.5637 42.8281 32.5637C42.7199 32.5637 42.6658 32.6181 42.6117 32.6725L42.5034 32.5637L42.3952 32.6725C42.1247 32.6181 41.6918 32.8358 41.3672 32.8902C40.9343 32.6725 40.4473 33.2713 40.0145 33.108L39.798 33.3257C39.798 33.3257 39.3111 33.4346 39.1487 33.3257C40.0145 32.6181 41.259 32.2915 42.4493 32.0193C43.0445 31.7472 44.2349 32.2371 44.2349 31.2029C43.6397 30.8218 43.0986 31.5295 42.5576 31.3117L42.4493 31.4206C41.6918 31.2029 41.0966 31.7472 40.5014 31.6927C39.8521 31.856 39.3111 32.2371 38.8241 32.5092L38.7159 32.4004C38.1748 32.7269 37.796 32.9447 37.2549 33.4346L37.1467 33.3257C36.6056 33.9789 36.0104 34.4688 35.6858 35.3397C35.307 35.8296 35.5776 36.3194 35.4693 36.8638C35.9563 36.7549 36.1728 36.4283 36.1728 35.9929C36.3351 34.8498 37.5255 34.4143 38.1207 33.7612C38.1207 33.9244 38.4453 34.0877 38.2289 34.1966C38.4994 34.4143 38.9864 34.1966 39.1487 34.5232L39.0405 34.6321C39.798 35.7207 40.9884 35.7751 42.0165 36.265L42.2329 36.1017ZM42.2329 33.6523C42.2329 33.9789 42.6117 34.3599 42.3411 34.6321C42.2329 34.6321 42.0165 34.7409 41.9624 34.5232C41.9083 34.1422 41.9624 33.87 42.287 33.5979L42.2329 33.6523Z" fill="#FDF4E7"/>
<path d="M23.349 34.1422C23.349 34.1422 23.9983 34.6321 23.4573 34.8498L24.0525 35.4485C24.4312 35.6663 24.9182 35.884 25.1887 36.0473C25.4052 36.0473 25.5675 36.0473 25.6757 36.265L25.7839 36.1562C25.7839 36.1562 26.4332 36.3739 26.5956 36.3739C27.1907 36.4283 27.84 36.646 28.3811 36.5916L28.4894 36.7005C28.7599 36.5916 29.1387 36.5916 29.301 36.3194C29.301 35.6118 28.3811 36.1017 28.0565 35.7207C28.2729 35.2308 28.7058 34.7954 28.9763 34.3055C29.1928 34.4688 29.4092 34.4688 29.6797 34.5232L29.8962 33.9244C30.2208 33.9244 30.6537 34.3599 30.9242 33.9244C31.1948 32.9991 30.1126 32.9447 29.6797 32.5092C29.4092 32.6725 28.9763 32.2915 28.7599 32.2915L28.4352 31.9649L28.327 32.0738C27.6777 31.8016 26.9202 31.5839 26.2709 31.6383C26.0004 31.3662 25.3511 31.6383 25.0264 31.5839C24.7559 31.856 24.1607 31.475 23.8901 31.9105C23.9442 31.9105 23.9983 32.0193 23.9983 32.1282C24.4853 32.2371 24.9723 32.2915 25.3511 32.4548C25.0264 32.4548 24.9723 32.727 24.81 32.9447C23.9442 32.4548 23.7819 33.489 22.9703 33.3257C22.6456 33.7067 22.808 34.1422 23.2949 34.1966L23.349 34.1422ZM27.3531 32.727C27.3531 32.727 27.0284 32.8358 26.9202 32.6181L26.812 32.727L26.7038 32.5092L27.3531 32.727ZM26.5956 34.1422C26.5956 34.1422 26.5956 34.7409 26.325 34.6321C25.838 34.4143 26.2168 33.9245 26.5956 34.1422Z" fill="#FDF4E7"/>
<path d="M35.3611 41.4905C36.1186 41.2183 36.5515 40.674 37.1467 40.293C37.2549 40.1297 37.2549 39.9119 37.0385 39.8031C36.281 39.5854 35.9022 40.674 35.307 40.5107C35.0906 40.5107 34.82 40.8917 34.6036 40.6196H34.4954C33.7379 40.4563 32.9804 40.0208 32.4393 39.4765L32.3311 39.6942L32.2228 39.5854L32.1146 39.6942C32.3311 40.1841 32.4393 40.8373 33.0345 40.9461C33.3591 41.3816 33.9543 41.2727 34.3331 41.6538C34.0084 42.0348 33.2509 41.7626 32.9262 41.8715C32.818 42.0348 32.6016 41.9804 32.4393 41.9804L32.5475 42.0892L32.4393 42.1981C32.6016 42.5791 33.2509 42.7424 33.792 42.7968C33.6297 43.1234 33.2509 42.9601 33.2509 43.3956C33.6838 43.8855 34.3872 43.7222 34.9824 43.8855C35.307 43.7766 35.9022 43.7766 35.9022 43.2867C35.1447 42.688 36.3892 42.5247 36.5515 42.0892L36.1728 41.7082L36.0645 41.8171L35.9563 41.7082C35.9563 41.7082 35.794 41.7626 35.7399 41.8171L35.6317 41.7082L35.5235 41.8171C35.5235 41.8171 35.0906 41.9259 34.8742 41.7082C35.0365 41.5993 35.307 41.4905 35.3611 41.5993V41.4905Z" fill="#FDF4E7"/>
<path d="M37.2008 66.4746C37.7419 65.8759 38.4453 65.767 38.8782 65.1683C39.4734 64.2974 38.0124 63.8619 37.7419 63.1543C37.1467 62.1745 36.6056 61.5214 35.6858 60.8137C35.4152 60.3239 36.1186 60.1606 36.3351 59.7795C36.9844 59.453 37.6878 58.7453 38.283 58.2555L38.1748 58.1466C38.1748 58.1466 38.283 57.9289 38.283 57.82C38.1748 57.6023 38.283 57.1668 37.9042 57.1124C36.4974 57.4934 35.9022 59.0175 34.3872 59.3441C33.6297 58.9086 33.305 58.1466 32.7639 57.7111C32.4934 57.6023 32.0605 57.6023 31.8441 57.7111C31.8982 58.4732 32.4934 58.7453 32.7639 59.2352L32.6557 59.3441L33.4673 60.0517C33.2509 61.1948 31.79 61.2492 31.4112 62.0657L31.5194 62.1745C31.5194 62.1745 31.4112 62.4467 31.4112 62.5556C31.6817 62.5556 32.0064 62.5556 32.1146 62.5556C32.9262 62.4467 33.4673 61.6302 34.0625 61.2492C35.2529 61.5214 35.5776 62.7733 36.3892 63.5898L36.4974 63.4809C36.7679 63.8619 37.309 64.0252 37.5255 64.3518C37.1467 64.5695 36.8762 64.9506 36.4974 64.8417C36.4974 64.9506 36.4433 65.005 36.3892 65.0594H36.281C36.281 65.0594 36.2269 65.1139 36.1728 65.1683L36.0645 65.0594L35.9563 65.1683C35.9563 65.1683 35.7399 65.005 35.6317 64.9506C35.5235 64.8417 35.307 64.624 35.2529 64.8417C34.5495 64.4607 34.0084 64.0252 33.4132 63.5353C32.9804 63.4265 32.6016 62.8277 32.1687 62.9366L32.0605 62.8277C32.0605 62.8277 31.5735 62.991 31.5735 63.2087C32.4934 64.2974 33.792 65.0594 34.8742 66.1481C34.6036 66.6924 33.8461 67.0734 33.4673 67.4544C32.9804 68.162 32.0064 68.4342 31.5194 69.1418C31.5194 69.3595 31.4112 69.6861 31.6276 69.8494C32.3852 70.6115 33.305 71.4279 34.1707 72.0267C33.6838 72.8432 32.7098 73.1698 32.1146 73.8229L32.4393 74.204C33.8461 74.7483 34.5495 73.3875 35.6317 73.0065C36.0645 73.2786 36.8221 73.2242 36.9303 73.8229C37.6878 74.1495 38.283 74.6938 39.0946 74.8571C39.4193 73.4963 37.5255 73.1698 36.8221 72.1355C37.0926 71.2646 38.283 70.8836 38.77 70.176H38.6617C38.7159 69.6861 39.2028 69.7406 39.4734 69.5773C39.4734 69.3051 39.6898 69.0874 39.4734 68.8696C38.7159 67.9987 37.9042 67.1278 37.2008 66.2569V66.4746ZM36.0645 70.3937C35.6858 70.6115 35.307 71.1558 34.82 70.8292C34.82 70.4482 34.4413 70.7203 34.3331 70.5026C34.2248 70.0671 33.6297 70.1216 33.5214 69.6861C34.4413 69.0329 35.1988 67.9443 36.281 67.6721C36.6597 68.0532 37.309 68.3253 37.5255 68.8152C37.2549 69.4684 36.4974 69.9039 36.1186 70.3937H36.0645Z" fill="#FDF4E7"/>
<path d="M9.17262 91.6766L9.0644 91.5677L9.17262 91.4588L9.0644 91.35C9.11851 91.0234 9.33495 90.8057 9.28084 90.4246H8.90208C8.30688 91.2955 7.44115 92.0032 7.38704 93.1462C8.46921 93.6905 8.46921 92.0032 9.22673 91.6221L9.17262 91.6766Z" fill="#FDF4E7"/>
<path d="M55.5977 126.622C55.5977 126.622 55.0566 126.785 54.9484 126.731H55.0566C54.732 127.057 54.1909 127.057 53.9203 127.057C53.6498 127.221 53.1087 127.112 52.8923 127.166C52.73 127.166 52.5676 127.275 52.5135 127.057C52.1889 127.221 51.6478 127.112 51.3772 127.166C51.269 127.166 51.2149 127.112 51.1608 127.057C50.9985 127.275 50.7821 126.839 50.6738 127.057C49.4835 126.839 48.6177 126.132 47.5897 125.533C47.265 124.771 46.3993 124.172 46.3452 123.301C46.0205 122.866 45.75 122.267 45.6959 121.777C45.5335 121.614 45.6417 121.451 45.3712 121.396V120.689C45.263 119.546 44.8301 118.566 44.5596 117.532C44.6678 116.824 45.3171 116.116 44.776 115.463L44.8842 115.354C44.8842 115.354 44.8842 115.082 44.8842 114.973C45.8582 114.429 47.1027 113.939 48.4013 113.83C48.5636 113.83 48.6718 114.048 48.78 113.83L48.8883 113.939C48.8883 113.939 49.267 113.558 49.4834 113.83C49.9704 113.449 50.8362 113.395 51.3231 113.014L51.4314 113.123C51.8101 112.742 52.73 113.123 52.8382 112.415C52.5135 112.034 51.9183 112.252 51.4855 112.197C51.0526 112.306 50.5656 112.469 50.1327 112.415L50.0245 112.524C49.3752 112.578 49.0506 112.796 48.4554 112.742C47.6979 112.851 46.8862 112.851 46.1828 113.177C45.75 113.068 45.2089 113.504 44.8301 113.504C44.7219 113.667 44.5596 113.504 44.3973 113.558C43.9644 113.721 43.3692 113.667 42.9904 113.667C42.8822 113.667 42.8281 113.613 42.774 113.558L42.6658 113.667L42.5576 113.558L42.4493 113.667C42.4493 113.667 42.287 113.613 42.2329 113.558L42.1247 113.667C41.6918 113.558 41.0966 113.449 40.7179 113.558C40.6097 113.504 40.2309 113.667 40.0686 113.558L39.9604 113.667L39.8521 113.558C38.4994 113.558 37.309 113.939 35.8481 113.667C35.4693 113.83 34.8742 113.776 34.6036 113.776C34.3872 114.102 34.2249 113.558 34.0084 113.885L33.9002 113.776L33.792 113.885C33.4673 113.721 32.9262 113.776 32.6557 113.776C32.5475 113.776 32.3852 113.776 32.3311 113.885L32.2228 113.776L32.1146 113.885C32.1146 113.885 31.4653 113.994 31.303 113.885L31.1948 113.994C31.1948 113.994 30.7619 114.048 30.7078 113.885L30.5996 113.994C30.5996 113.994 30.2749 114.048 30.2208 113.885L30.1126 113.994C30.1126 113.994 29.8421 113.994 29.788 113.885L29.6797 113.994L29.5715 113.885C29.5715 113.885 29.4092 113.939 29.3551 113.994C28.7599 114.102 28.4352 113.776 27.8401 113.994L27.7318 113.885L27.6236 113.994L27.5154 113.885C27.5154 113.885 27.2449 113.885 27.1907 113.994L27.0825 113.885C26.7038 113.885 26.1627 113.885 25.7298 113.667H24.2148C24.2148 113.667 24.0525 113.613 23.9983 113.558L23.8901 113.667L23.7819 113.558L23.6737 113.667L23.5655 113.558L23.4573 113.667L23.349 113.558L23.2408 113.667L23.1326 113.558C21.5094 113.613 20.1025 113.558 18.5334 113.232C17.6677 113.068 16.6396 113.286 15.828 112.959C15.2869 113.286 14.7999 112.633 14.3129 112.851C14.2047 112.851 14.1506 112.796 14.0965 112.742C13.8801 112.742 13.339 112.851 13.0684 112.633C12.852 112.959 12.6356 112.415 12.4191 112.633C11.3911 112.306 10.363 111.98 9.28084 111.816C8.95619 111.599 8.57743 111.49 8.25278 111.49C7.98223 111.163 7.49526 111.326 7.33293 111C7.1165 111.326 6.95417 110.782 6.73774 111.109L6.25076 110.673C5.81789 110.673 5.27681 110.456 4.73572 110.292C4.08642 110.02 3.2748 109.911 2.6796 109.966L2.57138 109.857L2.46317 109.966C2.13852 110.02 1.81387 109.966 1.65154 109.639C1.92208 109.53 1.97619 109.095 2.24673 108.931C3.11247 108.442 3.00425 107.516 3.49123 106.809L3.38301 106.7C3.38301 106.7 3.49123 106.591 3.59945 106.591C3.54534 105.938 4.14053 105.393 4.08642 104.903L4.19464 104.795L4.08642 104.686C4.08642 104.686 4.14053 104.522 4.19464 104.468L4.08642 104.359L4.19464 104.25C4.19464 104.25 4.19464 103.978 4.08642 103.924L4.19464 103.815L4.08642 103.706L4.19464 103.597C4.03231 103.216 4.41107 102.617 4.30286 102.182C4.30286 102.073 4.30286 102.019 4.41107 101.964C4.08642 101.746 4.62751 101.529 4.41107 101.365L4.51929 101.257C4.73572 100.44 4.46518 99.1881 5.11448 98.4261C5.70968 97.664 5.76379 96.6299 6.57541 95.9222L6.4672 95.8134C6.68363 95.2691 7.33293 94.6703 6.84596 94.126C4.78983 94.7792 4.51929 97.4463 3.54534 99.1881V100.113C3.38301 101.093 3.11247 102.019 2.62549 102.944C2.40906 103.597 2.24673 104.522 1.92208 105.285C1.48922 106.101 1.54332 107.298 1.11046 108.006C0.677588 108.659 0.94813 109.748 0.298828 110.238C1.05635 111 2.46317 111.163 3.49123 111.653C4.03231 111.653 4.51929 112.088 5.00627 112.088C5.43913 112.088 5.70968 112.469 6.25076 112.415C6.4672 112.415 6.57541 112.796 6.73774 112.524C7.54937 112.905 8.52332 113.014 9.38905 113.34C10.5794 113.939 11.9322 114.266 13.0684 114.538C13.2308 114.429 13.6095 114.756 13.7718 114.647L13.8801 114.756C14.5835 114.864 15.341 115.028 15.9903 114.973C16.0985 114.973 16.1526 114.973 16.2067 115.082L16.3149 114.973C16.3149 114.973 16.4773 114.973 16.5314 115.082L16.6396 114.973L16.7478 115.082C17.2348 115.463 18.1005 115.246 18.5875 115.3C18.9663 115.518 19.6156 115.354 19.9402 115.409C20.6436 115.137 20.9683 115.518 21.6176 115.409L21.7258 115.518C21.9963 115.3 22.4292 115.409 22.7539 115.409C23.1326 115.844 23.7278 115.354 24.1066 115.518C24.5394 115.3 25.1887 115.409 25.5675 115.409C25.9463 115.953 26.7038 115.3 27.1907 115.518L27.299 115.409C27.299 115.409 27.5695 115.409 27.6236 115.518L27.7318 115.409C28.0565 115.681 28.4352 115.3 28.6517 115.409L28.7599 115.518L28.8681 115.409L28.9763 115.518C29.3551 115.3 30.2208 115.463 30.6537 115.409C30.816 115.246 31.0325 115.354 31.303 115.3C32.0064 115.572 31.303 116.062 31.0866 116.443C31.4653 117.205 31.1948 117.858 31.5194 118.675C31.2489 119.219 31.5735 119.491 31.5194 119.981L31.6276 120.09C31.6276 120.09 31.7359 120.417 31.5194 120.471C31.5194 120.743 31.8982 121.015 31.6276 121.287L31.7359 121.396C31.7359 121.396 31.8441 121.941 31.6276 122.104C32.0064 122.866 31.8441 123.791 31.7359 124.717C31.8441 126.513 29.5715 125.969 28.5435 126.622L28.4352 126.513C27.9483 126.785 27.1907 126.894 26.7038 126.839C26.4332 126.894 26.2168 127.166 25.9463 126.894L25.838 127.003C25.838 127.003 25.6757 126.948 25.6216 126.894C25.4052 127.221 25.2428 126.785 24.9723 126.894C24.9723 127.003 24.9182 127.057 24.8641 127.112L24.7559 127.003L24.6476 127.112L24.5394 127.003L24.4312 127.112L24.323 127.003L24.2148 127.112L24.1066 127.003L23.9983 127.112C23.9983 127.112 23.836 127.112 23.7819 127.003L23.6737 127.112C23.349 126.894 22.8621 126.839 22.4292 127.003C22.0504 126.676 21.6176 127.166 21.2929 127.003C21.1306 127.166 21.0765 127.329 21.0765 127.493C22.4292 128.255 23.8901 128.799 25.2428 129.398L25.3511 129.289C25.838 129.234 26.2168 129.779 26.5956 129.67C26.9743 129.888 27.4613 129.67 27.8401 129.888H28.8681L28.9763 129.997L29.0845 129.888L29.1928 129.997L29.301 129.888C29.301 129.888 29.8962 129.942 30.2208 129.997C30.5996 130.323 31.3571 129.997 31.7359 130.105C32.3852 129.833 32.7639 130.595 33.4132 130.595C33.9002 130.759 34.7659 130.759 35.1447 130.595L35.2529 130.704C35.2529 130.704 35.5235 130.704 35.5235 130.595L35.6317 130.704C36.0104 130.541 36.5515 130.704 36.8762 130.214C36.8762 130.105 36.8221 130.105 36.768 129.997C36.8762 129.616 36.9844 129.18 37.0385 128.799C37.2549 128.527 37.1467 128.091 37.1467 127.874C37.1467 127.765 37.1467 127.602 37.0385 127.602C37.3631 127.384 36.8221 127.166 37.1467 127.003L37.0385 126.894H37.1467C36.768 126.404 37.0926 125.696 36.8221 125.207C37.0926 124.989 36.7138 124.826 36.7138 124.608C36.8221 124.118 36.4974 123.846 36.6056 123.356C36.6056 123.247 36.5515 123.247 36.4974 123.138L36.6056 123.029C36.4433 122.594 36.4974 122.104 36.4974 121.614L36.3892 121.505C36.4433 121.07 36.6597 120.525 36.6056 120.199C36.6056 120.09 36.6056 119.927 36.7138 119.872L36.6056 119.763C37.309 118.838 36.9303 117.804 37.309 116.715C37.4173 116.389 37.7419 116.008 37.6337 115.681L37.7419 115.572L37.6337 115.463C37.6337 115.463 37.6878 115.3 37.7419 115.246L37.6337 115.137L37.9583 114.756C37.9583 114.756 38.283 114.647 38.3371 114.864L38.4453 114.756L38.8241 115.137C39.0405 115.735 39.2569 116.552 39.0405 117.042L39.1487 117.151C39.1487 117.151 39.2569 117.641 39.0405 117.749C39.4734 118.294 39.0946 119.165 39.3652 119.763C39.3652 120.798 38.9323 121.941 39.3652 122.92C39.2569 123.465 39.0946 124.336 39.1487 124.934L39.0405 125.043L39.1487 125.152C38.9864 125.696 38.9864 126.186 38.8241 126.839C38.9323 127.547 39.0405 128.581 39.0405 129.343C39.2028 130.051 40.2309 129.997 40.8802 130.16C41.259 129.997 41.9083 130.105 42.2329 130.051L42.3411 130.16L42.4493 130.051C42.4493 130.051 42.6117 130.105 42.6658 130.16L42.774 130.051L42.8822 130.16C43.2069 130.16 43.5856 130.16 43.8021 129.724C43.8021 129.561 43.9103 129.343 43.6938 129.234L43.8021 129.126L43.6938 129.017C43.6938 129.017 43.9644 128.69 44.1267 128.636C44.9924 129.234 46.2369 129.071 47.2109 129.507H48.0225C48.0225 129.507 48.1848 129.561 48.239 129.615C48.4013 129.289 48.5636 129.833 48.78 129.507L48.8883 129.615C48.8883 129.615 49.2129 129.724 49.3211 129.507L49.4293 129.615L49.5376 129.507C50.3492 129.67 51.2149 129.343 51.9183 129.017L52.0265 129.126C52.8382 128.69 53.8121 128.745 54.5155 128.091C54.732 127.493 55.76 127.22 55.219 126.567L55.3272 126.458L55.5977 126.622ZM36.1728 116.062C36.3351 116.606 35.8481 117.423 35.8481 118.022C35.794 119.001 35.2529 119.927 35.4693 120.906C35.307 121.015 35.3611 121.179 35.3611 121.287C35.3611 121.668 35.307 122.322 35.4693 122.703C35.3611 122.975 35.5776 123.356 35.6858 123.737C35.6317 124.172 35.7399 124.553 36.0104 124.934L35.9022 125.043C35.9022 125.043 36.0104 125.261 36.0104 125.315C36.1187 125.696 36.0645 126.35 36.2269 126.839C36.1187 127.329 36.3892 127.983 36.4433 128.581C36.3892 128.853 36.2269 129.126 35.9563 129.18C35.7399 129.18 35.4152 129.126 35.2529 129.289L35.1447 129.18C34.6036 129.18 33.6838 129.343 33.3591 128.69L33.1427 128.472L33.0345 128.581C32.818 128.255 32.7098 128.799 32.5475 128.472L32.4393 128.581C31.79 128.418 31.303 128.799 30.7078 128.69L30.5996 128.581C30.5996 128.581 30.329 128.636 30.2208 128.69L30.1126 128.581C30.1126 128.581 29.4633 128.472 29.1928 128.69C28.9222 128.527 28.3811 128.636 28.1647 128.581L28.0565 128.472C27.5154 128.472 27.0825 128.472 26.6497 128.364L25.838 128.091C26.1086 127.765 26.4873 128.255 26.6497 128.091L26.7579 128.2L26.8661 128.091C26.8661 128.091 26.9743 128.2 27.0825 128.2L27.1907 128.091C27.1907 128.091 28.0024 128.255 28.2188 127.874L28.327 127.983L28.4352 127.874C28.7599 128.146 29.0845 127.819 29.3551 127.765L29.4633 127.656C29.8962 127.874 30.329 127.384 30.816 127.275C31.3571 127.493 31.6276 126.676 32.0605 126.948C33.0345 126.35 33.3591 125.152 33.4673 124.063C33.5756 123.628 33.305 123.247 33.6838 122.812C33.4673 122.539 33.5756 122.376 33.4673 122.104C33.5756 121.941 33.3591 121.505 33.4673 121.287L33.3591 121.179C33.3591 121.179 33.4673 121.07 33.4673 120.961L33.3591 120.852L33.4673 120.743L33.3591 120.634L33.4673 120.525C33.4673 120.525 33.3591 120.308 33.3591 120.199L33.4673 120.09L33.3591 119.981L33.4673 119.872L33.3591 119.763C33.3591 119.219 33.305 118.729 33.3591 118.076L33.2509 117.967C33.5756 117.586 33.0886 117.151 33.2509 116.878C33.4132 116.77 33.3591 116.552 33.3591 116.389L33.2509 116.28C33.5756 116.116 33.0886 116.008 33.2509 115.79L33.0345 115.572L33.1427 115.463L33.0345 115.354C34.2249 115.137 35.8481 115.246 36.8221 115.246C36.4974 115.409 36.6597 115.899 36.3351 115.953L36.1728 116.062ZM48.9424 128.037C48.9424 128.037 48.78 128.037 48.7259 128.146L48.6177 128.037C48.6177 128.037 48.5095 128.146 48.4013 128.146L48.2931 128.037C47.5896 128.2 46.9404 127.71 46.1287 127.819L45.9123 127.602C45.9123 127.602 45.263 127.384 44.9924 127.493C44.4514 127.329 43.5315 127.112 43.0445 127.765C42.6658 128.091 43.0445 129.234 42.2329 128.799C41.7459 129.071 41.0966 128.799 40.772 128.581C40.7179 127.928 40.772 127.438 40.772 126.894C40.772 126.35 40.772 125.207 40.9884 124.553C40.9884 124.444 41.0966 124.227 40.8802 124.172L40.9884 124.063L40.8802 123.955C41.0966 123.193 40.8802 122.267 41.0966 121.505L40.9884 121.396C40.9884 121.396 41.0966 121.179 41.0966 121.07L40.9884 120.961L41.0966 120.852L40.9884 120.743C40.9884 120.362 40.9884 119.763 41.0966 119.328C40.9343 119.165 40.9884 118.892 40.9884 118.729L41.0966 118.62L40.9884 118.511C41.0966 117.913 40.8261 116.987 41.2049 116.389C41.259 116.171 41.4754 115.844 41.4213 115.681C41.5836 115.463 41.1507 115.246 41.2049 114.973C41.8 115.082 42.5576 114.81 43.0445 115.191C43.0445 115.844 42.9904 116.497 43.0445 117.096C43.0986 117.151 43.2069 117.205 43.1528 117.314H43.0445L43.1528 117.532C43.0445 117.913 43.3151 118.511 43.3692 118.838C43.3692 119.219 43.4774 119.382 43.5856 119.872C43.3151 120.308 43.7479 120.798 43.5856 121.179C43.5856 121.396 43.5315 121.832 43.6938 122.104C44.0726 122.812 44.1808 123.682 44.9383 124.118C45.263 125.043 45.9123 125.914 46.6157 126.731C47.3191 127.003 48.1307 127.493 48.9965 127.765V127.983L48.9424 128.037Z" fill="#FDF4E7"/>
</svg>
